<mxfile host="app.diagrams.net" agent="Mozilla/5.0 (X11; Ubuntu; Linux x86_64; rv:130.0) Gecko/20100101 Firefox/130.0" version="24.7.16">
  <diagram name="Page-1" id="xXgkDUD80wh_j66wwPEQ">
    <mxGraphModel dx="1434" dy="907" grid="1" gridSize="10" guides="1" tooltips="1" connect="1" arrows="1" fold="1" page="1" pageScale="1" pageWidth="850" pageHeight="1100" math="0" shadow="0">
      <root>
        <mxCell id="0" />
        <mxCell id="1" parent="0" />
        <mxCell id="BiGUuyi_gC30XPwSA8gK-8" style="edgeStyle=orthogonalEdgeStyle;rounded=0;orthogonalLoop=1;jettySize=auto;html=1;exitX=0.5;exitY=1;exitDx=0;exitDy=0;entryX=0.5;entryY=0;entryDx=0;entryDy=0;" edge="1" parent="1" source="BiGUuyi_gC30XPwSA8gK-1" target="BiGUuyi_gC30XPwSA8gK-2">
          <mxGeometry relative="1" as="geometry" />
        </mxCell>
        <mxCell id="BiGUuyi_gC30XPwSA8gK-1" value="&lt;div&gt;Archive Compression&lt;/div&gt;&lt;div&gt;(.ec file)&lt;br&gt;&lt;/div&gt;" style="rounded=1;whiteSpace=wrap;html=1;" vertex="1" parent="1">
          <mxGeometry x="40" y="160" width="120" height="60" as="geometry" />
        </mxCell>
        <mxCell id="BiGUuyi_gC30XPwSA8gK-9" style="edgeStyle=orthogonalEdgeStyle;rounded=0;orthogonalLoop=1;jettySize=auto;html=1;exitX=0.5;exitY=1;exitDx=0;exitDy=0;entryX=0.5;entryY=0;entryDx=0;entryDy=0;" edge="1" parent="1" source="BiGUuyi_gC30XPwSA8gK-2" target="BiGUuyi_gC30XPwSA8gK-3">
          <mxGeometry relative="1" as="geometry" />
        </mxCell>
        <mxCell id="BiGUuyi_gC30XPwSA8gK-2" value="RAND key generation" style="rounded=1;whiteSpace=wrap;html=1;" vertex="1" parent="1">
          <mxGeometry x="40" y="240" width="120" height="60" as="geometry" />
        </mxCell>
        <mxCell id="BiGUuyi_gC30XPwSA8gK-11" style="edgeStyle=orthogonalEdgeStyle;rounded=0;orthogonalLoop=1;jettySize=auto;html=1;exitX=0.5;exitY=1;exitDx=0;exitDy=0;entryX=0.25;entryY=0;entryDx=0;entryDy=0;" edge="1" parent="1" source="BiGUuyi_gC30XPwSA8gK-3" target="BiGUuyi_gC30XPwSA8gK-6">
          <mxGeometry relative="1" as="geometry" />
        </mxCell>
        <mxCell id="BiGUuyi_gC30XPwSA8gK-13" style="edgeStyle=orthogonalEdgeStyle;rounded=0;orthogonalLoop=1;jettySize=auto;html=1;exitX=1;exitY=0.75;exitDx=0;exitDy=0;entryX=0.5;entryY=0;entryDx=0;entryDy=0;" edge="1" parent="1" source="BiGUuyi_gC30XPwSA8gK-3" target="BiGUuyi_gC30XPwSA8gK-4">
          <mxGeometry relative="1" as="geometry" />
        </mxCell>
        <mxCell id="BiGUuyi_gC30XPwSA8gK-15" style="edgeStyle=orthogonalEdgeStyle;rounded=0;orthogonalLoop=1;jettySize=auto;html=1;exitX=1;exitY=0.25;exitDx=0;exitDy=0;entryX=1;entryY=0.5;entryDx=0;entryDy=0;" edge="1" parent="1" source="BiGUuyi_gC30XPwSA8gK-3" target="BiGUuyi_gC30XPwSA8gK-5">
          <mxGeometry relative="1" as="geometry" />
        </mxCell>
        <mxCell id="BiGUuyi_gC30XPwSA8gK-3" value="&lt;div&gt;AES256 Encryption&lt;/div&gt;&lt;div&gt;(.eea file)&lt;br&gt;&lt;/div&gt;" style="rounded=1;whiteSpace=wrap;html=1;fillColor=#f8cecc;strokeColor=#b85450;" vertex="1" parent="1">
          <mxGeometry x="40" y="320" width="120" height="60" as="geometry" />
        </mxCell>
        <mxCell id="BiGUuyi_gC30XPwSA8gK-14" style="edgeStyle=orthogonalEdgeStyle;rounded=0;orthogonalLoop=1;jettySize=auto;html=1;exitX=0.5;exitY=1;exitDx=0;exitDy=0;entryX=0.5;entryY=0;entryDx=0;entryDy=0;" edge="1" parent="1" source="BiGUuyi_gC30XPwSA8gK-4" target="BiGUuyi_gC30XPwSA8gK-5">
          <mxGeometry relative="1" as="geometry" />
        </mxCell>
        <mxCell id="BiGUuyi_gC30XPwSA8gK-4" value="SHA512 of .eea file" style="rounded=1;whiteSpace=wrap;html=1;" vertex="1" parent="1">
          <mxGeometry x="160" y="400" width="120" height="60" as="geometry" />
        </mxCell>
        <mxCell id="BiGUuyi_gC30XPwSA8gK-12" style="edgeStyle=orthogonalEdgeStyle;rounded=0;orthogonalLoop=1;jettySize=auto;html=1;exitX=0.25;exitY=1;exitDx=0;exitDy=0;entryX=0.75;entryY=0;entryDx=0;entryDy=0;" edge="1" parent="1" source="BiGUuyi_gC30XPwSA8gK-5" target="BiGUuyi_gC30XPwSA8gK-6">
          <mxGeometry relative="1" as="geometry" />
        </mxCell>
        <mxCell id="BiGUuyi_gC30XPwSA8gK-5" value="&lt;div&gt;GPG Encryption&lt;/div&gt;&lt;div&gt;(.ek file)&lt;br&gt;&lt;/div&gt;" style="rounded=1;whiteSpace=wrap;html=1;fillColor=#f8cecc;strokeColor=#b85450;" vertex="1" parent="1">
          <mxGeometry x="160" y="480" width="120" height="60" as="geometry" />
        </mxCell>
        <mxCell id="BiGUuyi_gC30XPwSA8gK-6" value="&lt;div&gt;S3 Upload&lt;/div&gt;&lt;div&gt;(.eea + .ek)&lt;br&gt;&lt;/div&gt;" style="rounded=1;whiteSpace=wrap;html=1;fillColor=#d5e8d4;strokeColor=#82b366;" vertex="1" parent="1">
          <mxGeometry x="100" y="560" width="120" height="60" as="geometry" />
        </mxCell>
      </root>
    </mxGraphModel>
  </diagram>
</mxfile>
